<?xml version="1.0" standalone="no"?>
<!DOCTYPE svg PUBLIC "-//W3C//DTD SVG 20010904//EN"
 "http://www.w3.org/TR/2001/REC-SVG-20010904/DTD/svg10.dtd">
<svg version="1.0" xmlns="http://www.w3.org/2000/svg"
 width="350.000000pt" height="350.000000pt" viewBox="0 0 350.000000 350.000000"
 preserveAspectRatio="xMidYMid meet">
<metadata>
Created by potrace 1.11, written by Peter Selinger 2001-2013
</metadata>
<g transform="translate(0.000000,350.000000) scale(0.100000,-0.100000)"
fill="#000000" stroke="none">
<path d="M1147 3330 c-152 -12 -169 -37 -177 -262 -3 -101 -9 -161 -17 -169
-7 -7 -56 -13 -130 -15 -140 -3 -208 -19 -323 -76 -67 -34 -103 -61 -170 -128
-124 -124 -186 -244 -208 -400 -5 -36 -8 -398 -7 -805 3 -837 1 -811 81 -975
82 -165 216 -277 409 -342 l70 -23 1055 -3 c1192 -3 1130 -7 1299 75 78 37
109 59 176 127 67 66 90 99 128 176 80 161 78 139 75 1031 l-3 784 -23 65
c-108 301 -364 490 -664 490 -110 0 -143 9 -154 42 -4 13 -8 84 -8 158 -1 108
-5 141 -18 167 -25 45 -69 73 -135 83 -66 11 -1121 11 -1256 0z m1212 -186
c22 -16 23 -21 19 -121 -2 -87 -6 -107 -21 -118 -31 -22 -161 -27 -681 -22
l-500 4 -19 24 c-17 21 -19 35 -14 112 5 93 18 122 61 130 11 2 271 5 576 6
497 1 558 -1 579 -15z m501 -461 c187 -64 307 -190 357 -376 16 -56 17 -140
18 -812 0 -746 0 -750 -22 -820 -52 -166 -182 -296 -347 -348 l-71 -22 -1035
0 -1035 0 -70 22 c-163 51 -287 172 -341 333 -18 52 -19 100 -19 830 0 840 -1
828 55 940 71 141 212 240 382 269 29 5 505 8 1058 7 l1005 -1 65 -22z"/>
<path d="M2180 2134 c-128 -55 -181 -214 -113 -336 78 -137 260 -167 370 -60
53 51 75 102 75 171 0 98 -52 183 -137 222 -49 23 -146 24 -195 3z"/>
<path d="M1060 2022 c-81 -33 -191 -103 -203 -129 -15 -32 7 -74 47 -88 23 -8
35 -5 64 13 99 61 145 77 223 77 67 0 86 -4 147 -34 62 -30 75 -33 97 -23 14
7 30 24 36 39 17 46 -2 70 -96 115 -78 37 -95 41 -178 45 -72 3 -102 0 -137
-15z"/>
<path d="M2209 1250 c-23 -14 -42 -65 -35 -94 5 -19 18 -28 58 -41 70 -23 76
-30 47 -54 -41 -35 -220 -119 -304 -143 -69 -20 -102 -23 -245 -22 -150 0
-173 3 -253 27 -119 37 -204 77 -302 142 -94 62 -128 68 -168 31 -87 -80 5
-190 242 -289 381 -159 773 -131 1108 80 95 59 89 59 125 -6 23 -42 76 -44
107 -5 26 33 26 40 0 116 -40 119 -98 179 -220 229 -82 34 -137 44 -160 29z"/>
</g>
</svg>
