<svg width="100%" height="100%" viewBox="0 0 21 21" xmlns="http://www.w3.org/2000/svg" xmlns:xlink="http://www.w3.org/1999/xlink">
<defs>
<style>
/* Lego face - Attila Farago for toviscsapat.hu */
.logo {
  fill: black;
  stroke-linecap: round;
  stroke-linejoin: round;
}
</style>
</defs>
<g id="legoface">
  <path class="logo logo-outerface" d="M15.41,3.22c-.21-.31-.08-.86-.08-1.3C15.32,1,14.94.61,14,.61H8c-2.19,0-2.21,0-2.2,2.2,0,.42-.09.55-.52.51A4.3,4.3,0,0,0,.63,7.91c.08,2.51,0,5,0,7.54a4.19,4.19,0,0,0,4.44,4.42h8.28c1,0,1.93,0,2.89,0a4.19,4.19,0,0,0,4.18-4.28c0-2.67,0-5.34,0-8a4.29,4.29,0,0,0-3.83-4.23c-.19,0-1,.09-1.21-.11M7.88,1.67c1.95,0,3.9,0,5.85,0,.45,0,.55.13.55.56,0,1.1,0,1.1-1.07,1.1H10.52c-1.05,0-2.11,0-3.16,0-.44,0-.56-.11-.55-.55C6.84,1.67,6.81,1.67,7.88,1.67ZM19.37,15.79a3.11,3.11,0,0,1-3,3q-5.82,0-11.64,0a3,3,0,0,1-3-2.88q-.07-4.3,0-8.61A3,3,0,0,1,4.83,4.38c1.91,0,3.81,0,5.72,0h5.58a3.12,3.12,0,0,1,3.24,3.14Q19.41,11.65,19.37,15.79Z"/>
  <path class="logo logo-righteye" d="M13.62,10.59a1.44,1.44,0,0,0,0-2.88,1.44,1.44,0,0,0-1.47,1.42A1.47,1.47,0,0,0,13.62,10.59Z"/>
  <path  class="logo logo-lefteye" d="M8.18,9.55a.38.38,0,0,0,.61-.19c.11-.25,0-.43-.25-.54a2.92,2.92,0,0,0-1.47-.43A2.85,2.85,0,0,0,5.36,9c-.23.13-.37.36-.18.62a.42.42,0,0,0,.65.05A1.93,1.93,0,0,1,8.18,9.55Z"/>
  <path class="logo logo-mouth" d="M14.13,13.28c-.37-.11-.88-.45-1.1.13s.45.47.71.67l.05,0a.54.54,0,0,1-.08.09,5.8,5.8,0,0,1-6.94-.14c-.27-.2-.52-.27-.77,0a.52.52,0,0,0,0,.82,3.36,3.36,0,0,0,.92.67A7.13,7.13,0,0,0,14.64,15s.1.07.11.13c.09.28.23.53.56.41s.32-.42.23-.73A2.06,2.06,0,0,0,14.13,13.28Z"/>
</g>
</svg>
